<?xml version="1.0" encoding="utf-8"?>
<!-- Generator: Adobe Illustrator 21.1.0, SVG Export Plug-In . SVG Version: 6.00 Build 0)  -->
<svg version="1.1" id="Capa_1" xmlns="http://www.w3.org/2000/svg" xmlns:xlink="http://www.w3.org/1999/xlink" x="0px" y="0px"
	 viewBox="0 0 567.3 64.8" style="enable-background:new 0 0 567.3 64.8;" xml:space="preserve">
<g>
	<g>
		<path d="M3.6,48.4v-8.9h74.7v8.9H3.6z M14.2,3.9h53.3v17.8H14.2V3.9z M13.3,25.3h55.1l8,10.7H5.3L13.3,25.3z M81.6,36.8
			c0,0,0-0.2-0.2-0.2L71.1,23V2.2c0-1.1-0.7-1.8-1.8-1.8H12.4c-1.1,0-1.8,0.7-1.8,1.8V23L0.4,36.6c0,0,0,0.2-0.2,0.2
			c0,0,0,0.2-0.2,0.2c0,0.4,0,0.5,0,0.7v24.9c0,1.1,0.7,1.8,1.8,1.8s1.8-0.7,1.8-1.8V51.9h74.7v10.7c0,1.1,0.7,1.8,1.8,1.8
			s1.8-0.7,1.8-1.8V37.7c0-0.2,0-0.4-0.2-0.7C81.6,37,81.6,37,81.6,36.8z"/>
	</g>
	<g>
		<g>
			<path d="M115.6,62.9c-0.2,0-0.4-0.2-0.4-0.4V2.1c0-0.2,0.2-0.4,0.4-0.4h37c0.2,0,0.4,0.2,0.4,0.4v2.7c0,0.2-0.2,0.4-0.4,0.4
				h-33.7v24.6h33.1c0.2,0,0.4,0.2,0.4,0.4v2.7c0,0.2-0.2,0.4-0.4,0.4h-33.1v29.4c0,0.2-0.2,0.4-0.4,0.4H115.6z"/>
			<path d="M152.6,2.1v2.7h-34.1v25.3h33.4v2.7h-33.4v29.7h-2.9V2.1H152.6 M152.6,1.4h-37c-0.4,0-0.7,0.3-0.7,0.7v60.4
				c0,0.4,0.3,0.7,0.7,0.7h2.9c0.4,0,0.7-0.3,0.7-0.7v-29h32.7c0.4,0,0.7-0.3,0.7-0.7v-2.7c0-0.4-0.3-0.7-0.7-0.7h-32.7V5.6h33.3
				c0.4,0,0.7-0.3,0.7-0.7V2.1C153.3,1.7,153,1.4,152.6,1.4L152.6,1.4z"/>
		</g>
		<g>
			<path d="M190.5,64c-17.1,0-29.1-13-29.1-31.6c0-18.6,12-31.6,29.1-31.6c16.9,0,29.1,13.3,29.1,31.6C219.6,50.7,207.4,64,190.5,64
				z M190.5,4.2c-15.1,0-25.2,11.3-25.2,28.2c0,16.9,10.1,28.2,25.2,28.2c14.8,0,25.2-11.6,25.2-28.2
				C215.7,15.5,205.6,4.2,190.5,4.2z"/>
			<path d="M190.5,1.1c17.5,0,28.7,13.8,28.7,31.3S208,63.6,190.5,63.6c-17.6,0-28.7-13.8-28.7-31.3S173,1.1,190.5,1.1 M190.5,60.9
				c15.5,0,25.6-12.1,25.6-28.5c0-16.6-10.1-28.5-25.6-28.5c-15.7,0-25.6,12-25.6,28.5C165,48.8,174.9,60.9,190.5,60.9 M190.5,0.4
				c-8.7,0-16.1,3.2-21.5,9.3c-5.1,5.8-8,13.8-8,22.7c0,8.8,2.8,16.9,8,22.7c5.4,6.1,12.8,9.3,21.5,9.3c8.6,0,16.1-3.2,21.5-9.3
				c5.2-5.8,8-13.9,8-22.7c0-8.8-2.8-16.9-8-22.7C206.6,3.6,199.2,0.4,190.5,0.4L190.5,0.4z M190.5,60.2
				c-14.8,0-24.8-11.2-24.8-27.8c0-16.6,10-27.8,24.8-27.8c14.8,0,24.8,11.2,24.8,27.8C215.4,48.8,205.1,60.2,190.5,60.2L190.5,60.2
				z"/>
		</g>
		<g>
			<path d="M251.1,64c-8.7,0-16.5-3.6-21.4-9.7c-0.1-0.2-0.1-0.4,0-0.5l2.4-2.1c0.1-0.1,0.2-0.1,0.2-0.1c0,0,0,0,0,0
				c0.1,0,0.2,0.1,0.3,0.1c2.7,3.3,8.7,8.8,18.5,8.8c15.9,0,17.1-10.2,17.1-13.3c0-9.7-8.9-12.2-17.5-14.6l-0.2-0.1
				c-9.3-2.6-19-5.4-19-16.1c0-10.4,9.7-15.8,19.3-15.8c8.5,0,15.2,2.9,19.9,8.7c0.1,0.2,0.1,0.4,0,0.5l-2.3,2.1
				c-0.1,0.1-0.2,0.1-0.2,0.1c0,0,0,0,0,0c-0.1,0-0.2-0.1-0.3-0.1c-4-5.1-9.7-7.7-17-7.7c-8.8,0-15.4,5.3-15.4,12.3
				c0,7.8,7.9,10.1,16.3,12.5l0.2,0c9.5,2.7,20.2,5.9,20.2,18.2C272.1,50,271.1,64,251.1,64z"/>
			<path d="M250.8,1.1c8.9,0,15.3,3.3,19.6,8.5l-2.3,2.1c-4.3-5.5-10.3-7.9-17.3-7.9C242,3.8,235,9.1,235,16.5
				c0,8.2,8.2,10.4,16.8,12.9c9.7,2.8,19.9,5.9,19.9,17.9c0,6.8-4.4,16.4-20.7,16.4c-9.4,0-16.8-4.1-21.1-9.6l2.4-2.1
				c3.7,4.5,10.1,9,18.8,9c14,0,17.5-8,17.5-13.7c0-9.8-8.8-12.4-17.8-15c-9.3-2.6-18.9-5.3-18.9-15.8
				C231.9,6.7,240.8,1.1,250.8,1.1 M250.8,0.4c-9.8,0-19.7,5.5-19.7,16.1c0,11,9.8,13.8,19.3,16.4l0.2,0.1
				c8.5,2.4,17.2,4.9,17.2,14.2c0,3-1.2,13-16.8,13c-9.6,0-15.5-5.5-18.2-8.7c-0.1-0.2-0.3-0.2-0.5-0.3c0,0,0,0-0.1,0
				c-0.2,0-0.4,0.1-0.5,0.2l-2.4,2.1c-0.3,0.3-0.3,0.7-0.1,1c4.9,6.3,12.9,9.9,21.7,9.9c20.4,0,21.4-14.3,21.4-17.1
				c0-12.6-10.9-15.8-20.5-18.6l-0.2,0c-8.6-2.5-16.1-4.6-16.1-12.1c0-6.8,6.5-12,15-12c7.2,0,12.8,2.6,16.7,7.6
				c0.1,0.2,0.3,0.3,0.5,0.3c0,0,0,0,0.1,0c0.2,0,0.4-0.1,0.5-0.2l2.3-2.1c0.3-0.3,0.3-0.7,0.1-1C266.2,3.3,259.4,0.4,250.8,0.4
				L250.8,0.4z"/>
		</g>
		<g>
			<path d="M301.1,62.9c-0.2,0-0.4-0.2-0.4-0.4V5.2h-20c-0.2,0-0.4-0.2-0.4-0.4V2.1c0-0.2,0.2-0.4,0.4-0.4h43.8
				c0.2,0,0.4,0.2,0.4,0.4v2.7c0,0.2-0.2,0.4-0.4,0.4h-20.1v57.4c0,0.2-0.2,0.4-0.4,0.4H301.1z"/>
			<path d="M324.5,2.1v2.7H304v57.7h-2.9V4.8h-20.4V2.1H324.5 M324.5,1.4h-43.8c-0.4,0-0.7,0.3-0.7,0.7v2.7c0,0.4,0.3,0.7,0.7,0.7
				h19.7v57c0,0.4,0.3,0.7,0.7,0.7h2.9c0.4,0,0.7-0.3,0.7-0.7v-57h19.7c0.4,0,0.7-0.3,0.7-0.7V2.1C325.2,1.7,324.9,1.4,324.5,1.4
				L324.5,1.4z"/>
		</g>
		<g>
			<path d="M371.7,62.9c-0.1,0-0.2-0.1-0.3-0.2l-18.3-25.9h-13.9v25.7c0,0.2-0.2,0.4-0.4,0.4h-2.9c-0.2,0-0.4-0.2-0.4-0.4V2.1
				c0-0.2,0.2-0.4,0.4-0.4h20.8c10.9,0,18.2,7,18.2,17.5c0,10.3-7,17.3-17.5,17.6l18.3,25.5c0.1,0.1,0.1,0.3,0,0.4
				c-0.1,0.1-0.2,0.2-0.3,0.2H371.7z M356.7,33.4c8.4,0,14.3-5.8,14.3-14.1c0-8.3-5.9-14-14.3-14h-17.6v28.2H356.7z"/>
			<path d="M356.7,2.1c9.8,0,17.9,6.1,17.9,17.1c0,11.1-8.1,17.2-17.9,17.2l18.7,26.1h-3.7l-18.4-26.1h-14.5v26.1h-2.9V2.1H356.7
				 M338.8,33.7h17.9c8.9,0,14.7-6.2,14.7-14.5c0-8.3-5.8-14.4-14.7-14.4h-17.9V33.7 M356.7,1.4h-20.8c-0.4,0-0.7,0.3-0.7,0.7v60.4
				c0,0.4,0.3,0.7,0.7,0.7h2.9c0.4,0,0.7-0.3,0.7-0.7V37.2h13.4L371.1,63c0.1,0.2,0.4,0.3,0.6,0.3h3.7c0.3,0,0.5-0.2,0.7-0.4
				c0.1-0.2,0.1-0.5-0.1-0.8l-17.9-25c10.3-0.6,17.2-7.6,17.2-17.9C375.3,8.6,367.9,1.4,356.7,1.4L356.7,1.4z M339.5,5.6h17.2
				c8.3,0,13.9,5.5,13.9,13.7c0,8.1-5.7,13.8-13.9,13.8h-17.2V5.6L339.5,5.6z"/>
		</g>
		<g>
			<path d="M389.8,63.7c-1.8,0-3.4-1.5-3.4-3.4c0-1.8,1.5-3.3,3.4-3.3c1.8,0,3.4,1.5,3.4,3.3C393.2,62.2,391.7,63.7,389.8,63.7z"/>
			<path d="M389.8,57.5c1.6,0,3,1.4,3,2.9c0,1.6-1.4,3-3,3c-1.6,0-3-1.4-3-3C386.8,58.8,388.2,57.5,389.8,57.5 M389.8,56.7
				c-2,0-3.7,1.7-3.7,3.6c0,2.1,1.7,3.7,3.7,3.7c2.1,0,3.7-1.7,3.7-3.7C393.6,58.4,391.8,56.7,389.8,56.7L389.8,56.7z"/>
		</g>
		<g>
			<path d="M407.2,62.9c-0.2,0-0.4-0.2-0.4-0.4V2.1c0-0.2,0.2-0.4,0.4-0.4h2.9c0.2,0,0.4,0.2,0.4,0.4v57.4h30c0.2,0,0.4,0.2,0.4,0.4
				v2.7c0,0.2-0.2,0.4-0.4,0.4H407.2z"/>
			<path d="M410.1,2.1v57.7h30.4v2.7h-33.3V2.1H410.1 M410.1,1.4h-2.9c-0.4,0-0.7,0.3-0.7,0.7v60.4c0,0.4,0.3,0.7,0.7,0.7h33.3
				c0.4,0,0.7-0.3,0.7-0.7v-2.7c0-0.4-0.3-0.7-0.7-0.7h-29.6v-57C410.9,1.7,410.5,1.4,410.1,1.4L410.1,1.4z"/>
		</g>
		<g>
			<path d="M452.5,62.9c-0.2,0-0.4-0.2-0.4-0.4V2.1c0-0.2,0.2-0.4,0.4-0.4h2.9c0.2,0,0.4,0.2,0.4,0.4v60.4c0,0.2-0.2,0.4-0.4,0.4
				H452.5z"/>
			<path d="M455.4,2.1v60.4h-2.9V2.1H455.4 M455.4,1.4h-2.9c-0.4,0-0.7,0.3-0.7,0.7v60.4c0,0.4,0.3,0.7,0.7,0.7h2.9
				c0.4,0,0.7-0.3,0.7-0.7V2.1C456.1,1.7,455.8,1.4,455.4,1.4L455.4,1.4z"/>
		</g>
		<g>
			<path d="M471.3,62.9c-0.2,0-0.4-0.2-0.4-0.4V2.1c0-0.2,0.2-0.4,0.4-0.4h37c0.2,0,0.4,0.2,0.4,0.4v2.7c0,0.2-0.2,0.4-0.4,0.4
				h-33.7v24.6h33.1c0.2,0,0.4,0.2,0.4,0.4v2.7c0,0.2-0.2,0.4-0.4,0.4h-33.1v29.4c0,0.2-0.2,0.4-0.4,0.4H471.3z"/>
			<path d="M508.3,2.1v2.7h-34.1v25.3h33.4v2.7h-33.4v29.7h-2.9V2.1H508.3 M508.3,1.4h-37c-0.4,0-0.7,0.3-0.7,0.7v60.4
				c0,0.4,0.3,0.7,0.7,0.7h2.9c0.4,0,0.7-0.3,0.7-0.7v-29h32.7c0.4,0,0.7-0.3,0.7-0.7v-2.7c0-0.4-0.3-0.7-0.7-0.7h-32.7V5.6h33.3
				c0.4,0,0.7-0.3,0.7-0.7V2.1C509,1.7,508.7,1.4,508.3,1.4L508.3,1.4z"/>
		</g>
		<g>
			<path d="M519.6,62.9c-0.2,0-0.4-0.2-0.4-0.4V2.1c0-0.2,0.2-0.4,0.4-0.4h37c0.2,0,0.4,0.2,0.4,0.4v2.7c0,0.2-0.2,0.4-0.4,0.4
				h-33.7v24.6H556c0.2,0,0.4,0.2,0.4,0.4v2.7c0,0.2-0.2,0.4-0.4,0.4h-33.1v26.3h33.7c0.2,0,0.4,0.2,0.4,0.4v2.7
				c0,0.2-0.2,0.4-0.4,0.4H519.6z"/>
			<path d="M556.6,2.1v2.7h-34.1v25.3H556v2.7h-33.4v27h34.1v2.7h-37V2.1H556.6 M556.6,1.4h-37c-0.4,0-0.7,0.3-0.7,0.7v60.4
				c0,0.4,0.3,0.7,0.7,0.7h37c0.4,0,0.7-0.3,0.7-0.7v-2.7c0-0.4-0.3-0.7-0.7-0.7h-33.3V33.6H556c0.4,0,0.7-0.3,0.7-0.7v-2.7
				c0-0.4-0.3-0.7-0.7-0.7h-32.7V5.6h33.3c0.4,0,0.7-0.3,0.7-0.7V2.1C557.3,1.7,557,1.4,556.6,1.4L556.6,1.4z"/>
		</g>
	</g>
</g>
</svg>
