<?xml version="1.0" encoding="utf-8"?>
<!-- Generator: Adobe Illustrator 21.1.0, SVG Export Plug-In . SVG Version: 6.00 Build 0)  -->
<svg version="1.1" id="Capa_1" xmlns="http://www.w3.org/2000/svg" xmlns:xlink="http://www.w3.org/1999/xlink" x="0px" y="0px"
	 viewBox="0 0 81.8 64" style="enable-background:new 0 0 81.8 64;" xml:space="preserve">
<g>
	<path d="M3.6,48v-8.9h74.7V48H3.6z M14.2,3.6h53.3v17.8H14.2V3.6z M13.3,24.9h55.1l8,10.7H5.3L13.3,24.9z M81.6,36.4
		c0,0,0-0.2-0.2-0.2L71.1,22.6V1.8c0-1.1-0.7-1.8-1.8-1.8H12.4c-1.1,0-1.8,0.7-1.8,1.8v20.8L0.4,36.3c0,0,0,0.2-0.2,0.2
		c0,0,0,0.2-0.2,0.2c0,0.4,0,0.5,0,0.7v24.9C0,63.3,0.7,64,1.8,64s1.8-0.7,1.8-1.8V51.6h74.7v10.7c0,1.1,0.7,1.8,1.8,1.8
		s1.8-0.7,1.8-1.8V37.3c0-0.2,0-0.4-0.2-0.7C81.6,36.6,81.6,36.6,81.6,36.4z"/>
</g>
</svg>
